<svg id="Group_2" data-name="Group 2" xmlns="http://www.w3.org/2000/svg" width="12.011" height="15" viewBox="0 0 12.011 15">
  <path id="Path" d="M3.265,7.99c2.22,0,3.018-2.223,3.227-4.048C6.75,1.693,5.687,0,3.265,0S-.22,1.693.038,3.942C.247,5.767,1.045,7.99,3.265,7.99Z" transform="translate(2.74 0)" fill="#29558c"/>
  <path id="Path-2" data-name="Path" d="M12.01,5.658a15.146,15.146,0,0,0-.231-2.117c-.15-.845-.34-2.083-1.078-2.634A6.034,6.034,0,0,0,9.234.292,6.366,6.366,0,0,1,8.583,0,3.38,3.38,0,0,1,6.005,1.127,3.379,3.379,0,0,1,3.428,0a6.35,6.35,0,0,1-.65.292A6.032,6.032,0,0,0,1.31.906C.572,1.457.382,2.7.232,3.54A15.139,15.139,0,0,0,0,5.658c-.019.549.252.626.711.791a13.292,13.292,0,0,0,1.766.487,17.8,17.8,0,0,0,3.527.439,17.8,17.8,0,0,0,3.527-.439A13.276,13.276,0,0,0,11.3,6.449C11.758,6.284,12.029,6.207,12.01,5.658Z" transform="translate(0 7.624)" fill="#29558c"/>
</svg>
