<svg xmlns="http://www.w3.org/2000/svg" width="19" height="14.778" viewBox="0 0 19 14.778">
  <path id="noun_website_1109455" d="M6.478,15A1.489,1.489,0,0,0,5,16.478V28.3a1.489,1.489,0,0,0,1.478,1.478H22.522A1.489,1.489,0,0,0,24,28.3V16.478A1.489,1.489,0,0,0,22.522,15Zm0,1.267H22.522a.2.2,0,0,1,.211.211v1.9H6.267v-1.9A.2.2,0,0,1,6.478,16.267Zm1.056.422a.633.633,0,1,0,.633.633A.633.633,0,0,0,7.533,16.689Zm1.689,0a.633.633,0,1,0,.633.633A.633.633,0,0,0,9.222,16.689Zm1.689,0a.633.633,0,1,0,.633.633A.633.633,0,0,0,10.911,16.689ZM6.267,19.644H22.733V28.3a.2.2,0,0,1-.211.211H6.478a.2.2,0,0,1-.211-.211Zm1.2.633a.633.633,0,0,0-.567.633v6.333a.633.633,0,0,0,.633.633h8.233a.633.633,0,0,0,.633-.633V20.911a.633.633,0,0,0-.633-.633H7.533A.632.632,0,0,0,7.467,20.278Zm10.153,0a.633.633,0,0,0-.587.633v2.533a.633.633,0,0,0,.633.633h3.8a.633.633,0,0,0,.633-.633V20.911a.6.6,0,0,0-.633-.633H17.62ZM8.167,21.544h6.967v5.067H8.167Zm10.133,0h2.533v1.267H18.3Zm-.7,3.167a.634.634,0,0,0,.066,1.267h3.8a.633.633,0,1,0,0-1.267h-3.8a.633.633,0,0,0-.066,0Zm0,1.9a.634.634,0,1,0,.066,1.267h3.8a.633.633,0,1,0,0-1.267h-3.8A.634.634,0,0,0,17.6,26.611Z" transform="translate(-5 -15)" fill="#29558c"/>
</svg>
